<?xml version="1.0" standalone="no"?>
<!DOCTYPE svg PUBLIC "-//W3C//DTD SVG 20010904//EN"
 "http://www.w3.org/TR/2001/REC-SVG-20010904/DTD/svg10.dtd">
<svg version="1.0" xmlns="http://www.w3.org/2000/svg"
 width="800.000000pt" height="800.000000pt" viewBox="0 0 800.000000 800.000000"
 preserveAspectRatio="xMidYMid meet">

<g transform="translate(0.000000,800.000000) scale(0.100000,-0.100000)"
fill="#000000" stroke="none">
<path d="M4403 5490 c-216 -112 -368 -200 -515 -297 -132 -87 -268 -205 -293
-254 -12 -22 -15 -80 -15 -284 l0 -255 -42 0 c-58 0 -139 -23 -192 -54 -82
-48 -131 -126 -152 -245 -18 -103 -18 -107 11 -73 42 50 94 65 243 70 l132 4
0 -40 0 -39 -60 -7 c-213 -24 -310 -120 -334 -331 l-7 -60 20 31 c28 46 68 56
234 62 l147 4 0 -88 c-1 -172 -26 -320 -87 -508 -5 -17 -3 -18 23 -12 77 20
192 73 247 115 51 38 69 60 99 121 65 129 67 153 67 952 l0 708 42 50 c23 28
62 66 86 86 l43 35 3 -778 c1 -428 2 -931 2 -1119 l0 -340 -30 -59 c-38 -74
-80 -105 -144 -105 -60 1 -106 23 -221 109 -139 104 -209 136 -290 135 -220
-4 -416 -153 -482 -369 -32 -101 -32 -255 0 -346 76 -222 271 -351 589 -390
132 -17 436 -5 548 20 259 60 408 200 422 397 l5 79 -32 -63 c-82 -160 -227
-198 -734 -189 -307 4 -369 15 -522 88 -149 71 -223 162 -209 258 17 116 103
198 230 222 49 9 59 7 117 -19 35 -16 94 -54 133 -85 80 -65 119 -77 238 -77
114 0 198 27 279 88 71 54 147 158 173 236 25 77 35 240 35 581 0 303 1 311
23 350 60 106 185 112 250 13 l27 -42 0 -321 c0 -342 8 -455 40 -557 19 -64
75 -153 133 -215 29 -31 106 -69 124 -62 4 2 89 90 187 194 99 105 200 211
225 238 l45 47 -21 22 -22 22 -22 -28 c-11 -15 -44 -40 -73 -56 -88 -51 -186
-36 -233 37 -17 25 -18 76 -21 840 l-2 814 99 97 c95 93 164 185 212 285 l23
47 -33 34 -34 35 -37 -77 c-48 -98 -118 -193 -171 -232 -51 -36 -69 -38 -69
-6 0 48 -52 204 -104 311 -44 89 -188 326 -198 325 -2 0 -72 -36 -155 -80z
m-59 -259 c51 -69 123 -225 146 -317 17 -66 20 -110 20 -312 0 -234 0 -236
-25 -279 -30 -51 -68 -73 -125 -73 -55 0 -94 28 -125 91 l-25 48 0 431 0 430
33 14 c51 23 63 19 101 -33z m-52 -1026 c66 -27 143 -12 195 37 l23 21 0 -188
c0 -180 -1 -187 -18 -172 -66 60 -198 63 -259 5 l-23 -21 0 188 0 188 23 -21
c12 -11 39 -28 59 -37z"/>
<path d="M3103 5455 c-153 -47 -291 -218 -301 -371 -5 -78 20 -178 57 -224 38
-49 106 -71 196 -67 80 4 147 32 221 93 54 44 58 64 7 30 -64 -42 -122 -59
-213 -60 -73 -1 -91 3 -129 24 -56 32 -83 84 -83 159 -1 84 20 125 76 146 79
30 156 18 329 -54 81 -34 171 -67 201 -73 50 -11 56 -10 102 17 73 42 183 125
250 188 55 53 57 56 26 46 -59 -20 -129 -6 -268 54 -233 100 -364 126 -471 92z"/>
<path d="M3410 1349 c-15 -6 -112 -9 -241 -7 -204 3 -216 2 -211 -15 3 -13 8
-15 15 -8 6 6 50 11 99 11 l88 0 0 -280 0 -281 -22 -9 c-17 -6 -5 -9 47 -9 39
1 64 3 58 6 -10 3 -13 71 -13 289 l0 284 85 0 c64 0 86 -4 92 -15 7 -12 11 -8
20 15 6 17 11 30 10 29 -1 0 -13 -5 -27 -10z"/>
<path d="M5744 1328 c7 -19 12 -24 14 -14 3 13 19 16 98 16 l94 0 0 -254 c0
-273 -4 -313 -29 -319 -9 -3 15 -5 52 -6 62 -1 67 0 53 15 -14 13 -16 54 -16
290 l0 274 88 0 c49 0 93 -5 99 -11 7 -7 12 -5 15 8 5 17 -6 18 -209 15 -123
-2 -226 1 -243 6 -27 10 -28 10 -16 -20z"/>
<path d="M2712 1329 c-99 -257 -219 -546 -233 -560 -19 -19 -18 -19 15 -19 28
0 33 3 29 18 -2 10 17 71 42 135 l47 117 92 0 91 0 49 -124 c26 -68 45 -129
42 -135 -5 -8 12 -11 53 -11 l60 0 -22 22 c-12 13 -71 145 -131 293 -60 149
-113 274 -117 279 -5 5 -12 -1 -17 -15z m32 -186 c20 -51 36 -95 36 -98 0 -3
-36 -5 -80 -5 -44 0 -80 1 -80 3 0 3 34 90 66 166 8 19 16 32 18 30 2 -2 20
-46 40 -96z"/>
<path d="M3658 1334 c-67 -21 -148 -98 -182 -175 -57 -125 -42 -241 41 -331
58 -61 115 -83 213 -82 167 2 291 111 319 281 24 148 -53 275 -189 313 -50 14
-147 11 -202 -6z m177 -43 c155 -73 226 -244 159 -379 -32 -65 -80 -105 -151
-127 -96 -30 -182 -6 -261 73 -63 63 -95 139 -96 228 0 63 3 77 30 120 67 110
195 144 319 85z"/>
<path d="M5395 1069 c-60 -154 -118 -289 -128 -300 -17 -18 -17 -19 12 -19 20
0 29 4 26 13 -3 7 16 66 43 132 l48 120 93 0 93 0 50 -124 c40 -98 47 -125 36
-132 -8 -5 13 -8 52 -8 36 0 59 3 52 6 -18 7 -36 48 -152 336 -57 141 -106
257 -109 257 -3 0 -55 -126 -116 -281z m139 67 c20 -50 36 -91 36 -93 0 -2
-36 -3 -80 -3 -44 0 -80 3 -80 7 0 20 75 192 81 185 4 -4 23 -47 43 -96z"/>
<path d="M6353 1329 c-71 -35 -103 -131 -67 -202 27 -53 43 -65 139 -102 111
-43 148 -76 148 -133 0 -82 -51 -122 -156 -122 -101 0 -138 25 -158 105 -5 21
-7 7 -8 -47 l-1 -78 98 0 c129 1 170 11 209 54 93 101 46 234 -98 281 -121 40
-159 72 -159 136 0 72 79 129 158 114 20 -3 53 -19 73 -35 l37 -29 -10 33 c-8
26 -18 35 -41 40 -58 12 -122 6 -164 -15z"/>
<path d="M1426 1326 c18 -14 19 -31 22 -289 3 -258 2 -276 -15 -280 -10 -3 4
-5 31 -6 42 -1 47 1 33 12 -16 11 -17 35 -15 246 l3 234 233 -246 232 -246 0
269 c0 150 4 280 10 294 9 24 8 26 -21 26 -26 0 -29 -3 -20 -14 8 -9 11 -80 9
-234 l-3 -221 -220 234 c-215 231 -220 235 -259 235 -37 0 -38 -1 -20 -14z"/>
<path d="M2079 1313 c11 -16 49 -76 85 -136 l66 -108 0 -153 c0 -114 -3 -156
-12 -159 -7 -3 16 -6 52 -6 49 0 61 2 48 10 -16 9 -18 28 -18 167 l0 157 76
115 c42 63 83 121 92 128 14 10 12 12 -11 12 -15 0 -27 -5 -27 -12 0 -7 -32
-61 -71 -120 -63 -95 -73 -106 -84 -91 -40 61 -118 198 -118 210 0 9 -15 13
-49 13 l-49 0 20 -27z"/>
<path d="M4368 1058 c2 -262 1 -284 -15 -296 -15 -11 6 -13 137 -10 178 3 201
12 239 91 45 93 7 206 -77 232 l-24 7 27 28 c33 34 45 83 32 130 -20 79 -66
100 -214 100 l-108 0 3 -282z m209 252 c40 -24 55 -51 55 -105 2 -94 -40 -135
-137 -135 l-55 0 0 130 0 130 53 0 c34 0 63 -7 84 -20z m63 -285 c52 -50 65
-160 26 -219 -20 -32 -83 -49 -143 -40 -77 11 -83 24 -83 170 l0 126 84 -3
c78 -4 87 -6 116 -34z"/>
<path d="M4851 1303 c10 -42 12 -485 3 -520 -3 -12 -13 -24 -23 -26 -9 -3 75
-5 187 -6 l202 -1 -1 43 c-1 23 -4 33 -6 22 -10 -42 -21 -45 -144 -45 -151 0
-149 -2 -149 158 l0 113 115 -3 c97 -3 115 -1 115 12 0 13 -18 15 -115 12
l-115 -3 0 135 0 136 115 0 115 0 20 -32 20 -33 0 38 0 37 -174 0 -174 0 9
-37z"/>
</g>
</svg>
